<svg width="202" height="51" viewBox="0 0 202 51" fill="none" xmlns="http://www.w3.org/2000/svg">
<path d="M9.02344 9.5625V38H2.16797V9.5625H9.02344ZM20.0781 21.3984V26.6719H7.07031V21.3984H20.0781ZM21.1914 9.5625V14.8555H7.07031V9.5625H21.1914Z" fill="#0066FF"/>
<g filter="url(#filter0_d_130_2951)">
<path d="M29.2104 0L32.4009 9.67376H42.7254L34.3727 15.6525L37.5631 25.3262L29.2104 19.3475L20.8578 25.3262L24.0482 15.6525L15.6955 9.67376H26.02L29.2104 0Z" fill="white"/>
<path d="M29.2104 4.78913L30.9764 10.1436L31.3161 11.1738H32.4009H38.0526L33.4996 14.4327L32.6027 15.0748L32.9482 16.1223L34.6992 21.4316L30.0835 18.1278L29.2104 17.5029L28.3374 18.1278L23.7217 21.4316L25.4727 16.1223L25.8182 15.0748L24.9213 14.4327L20.3682 11.1738H26.02H27.1048L27.4445 10.1436L29.2104 4.78913Z" stroke="#0066FF" stroke-width="3"/>
</g>
<path d="M52.3311 12.2307V22.8947H49.7603V12.2307H52.3311ZM56.4766 16.6691V18.6467H51.5986V16.6691H56.4766ZM56.894 12.2307V14.2155H51.5986V12.2307H56.894ZM66.2453 12.2307V22.8947H63.6818V12.2307H66.2453ZM77.64 20.3825L79.8593 12.2307H82.7377L79.1415 22.8947H77.2812L77.64 20.3825ZM75.6259 12.2307L77.8451 20.3825L78.2187 22.8947H76.3363L72.7621 12.2307H75.6259ZM96.4103 20.9172V22.8947H90.7267V20.9172H96.4103ZM91.6422 12.2307V22.8947H89.0714V12.2307H91.6422ZM95.6778 16.4641V18.3757H90.7267V16.4641H95.6778ZM96.4322 12.2307V14.2155H90.7267V12.2307H96.4322ZM117.793 20.0602C117.793 19.8942 117.769 19.7453 117.72 19.6135C117.671 19.4767 117.581 19.3498 117.449 19.2326C117.317 19.1154 117.127 18.9982 116.878 18.881C116.634 18.759 116.312 18.632 115.911 18.5002C115.442 18.3439 114.991 18.1682 114.556 17.9728C114.122 17.7726 113.733 17.5407 113.392 17.277C113.05 17.0085 112.779 16.696 112.579 16.3395C112.378 15.9782 112.278 15.5583 112.278 15.0798C112.278 14.6208 112.381 14.2082 112.586 13.842C112.791 13.4709 113.077 13.1559 113.443 12.8972C113.814 12.6335 114.249 12.4333 114.747 12.2966C115.245 12.155 115.789 12.0842 116.38 12.0842C117.161 12.0842 117.85 12.2209 118.445 12.4943C119.046 12.7629 119.515 13.1462 119.852 13.6442C120.193 14.1374 120.364 14.7209 120.364 15.3947H117.808C117.808 15.1262 117.752 14.8893 117.64 14.6843C117.532 14.4792 117.369 14.3181 117.149 14.2009C116.929 14.0837 116.653 14.0251 116.321 14.0251C115.999 14.0251 115.728 14.0739 115.508 14.1716C115.289 14.2692 115.123 14.4011 115.01 14.5671C114.898 14.7282 114.842 14.9064 114.842 15.1017C114.842 15.2629 114.886 15.4094 114.974 15.5412C115.066 15.6682 115.196 15.7878 115.362 15.9001C115.533 16.0124 115.738 16.1198 115.977 16.2224C116.221 16.3249 116.495 16.425 116.797 16.5226C117.364 16.7033 117.867 16.9059 118.306 17.1306C118.75 17.3503 119.124 17.6017 119.427 17.8849C119.734 18.1633 119.966 18.4807 120.123 18.8371C120.284 19.1935 120.364 19.5964 120.364 20.0456C120.364 20.5241 120.271 20.9489 120.086 21.32C119.9 21.6911 119.634 22.006 119.288 22.2648C118.941 22.5187 118.526 22.7116 118.042 22.8434C117.559 22.9753 117.02 23.0412 116.424 23.0412C115.877 23.0412 115.337 22.9728 114.805 22.8361C114.278 22.6945 113.799 22.4797 113.37 22.1916C112.94 21.8986 112.596 21.5251 112.337 21.071C112.083 20.612 111.956 20.0676 111.956 19.4377H114.534C114.534 19.7502 114.576 20.0139 114.659 20.2287C114.742 20.4435 114.864 20.6169 115.025 20.7487C115.186 20.8757 115.384 20.9684 115.618 21.027C115.853 21.0807 116.121 21.1076 116.424 21.1076C116.751 21.1076 117.015 21.0612 117.215 20.9684C117.415 20.8708 117.562 20.7438 117.654 20.5876C117.747 20.4265 117.793 20.2507 117.793 20.0602ZM132.404 12.2307V22.8947H129.833V12.2307H132.404ZM135.612 12.2307V14.2155H126.698V12.2307H135.612ZM145.878 14.4719L143.278 22.8947H140.517L144.435 12.2307H146.186L145.878 14.4719ZM148.032 22.8947L145.424 14.4719L145.087 12.2307H146.86L150.8 22.8947H148.032ZM147.929 18.9177V20.9025H142.458V18.9177H147.929ZM157.134 12.2307H161.331C162.151 12.2307 162.864 12.3527 163.469 12.5969C164.075 12.841 164.541 13.2023 164.868 13.6808C165.2 14.1594 165.366 14.7502 165.366 15.4533C165.366 16.0637 165.271 16.5739 165.081 16.9841C164.89 17.3942 164.624 17.7336 164.282 18.0021C163.945 18.2658 163.552 18.4831 163.103 18.654L162.261 19.1301H158.738L158.723 17.1452H161.331C161.658 17.1452 161.929 17.0866 162.144 16.9694C162.358 16.8522 162.52 16.6862 162.627 16.4714C162.739 16.2516 162.796 15.9904 162.796 15.6877C162.796 15.3801 162.739 15.1164 162.627 14.8967C162.515 14.6769 162.349 14.5085 162.129 14.3913C161.914 14.2741 161.648 14.2155 161.331 14.2155H159.705V22.8947H157.134V12.2307ZM162.971 22.8947L160.613 18.1779L163.338 18.1633L165.725 22.7849V22.8947H162.971Z" fill="white"/>
<path d="M52.3311 12.2307H54.1311V10.4307H52.3311V12.2307ZM52.3311 22.8947V24.6947H54.1311V22.8947H52.3311ZM49.7603 22.8947H47.9603V24.6947H49.7603V22.8947ZM49.7603 12.2307V10.4307H47.9603V12.2307H49.7603ZM56.4766 16.6691H58.2766V14.8691H56.4766V16.6691ZM56.4766 18.6467V20.4467H58.2766V18.6467H56.4766ZM51.5986 18.6467H49.7986V20.4467H51.5986V18.6467ZM51.5986 16.6691V14.8691H49.7986V16.6691H51.5986ZM56.894 12.2307H58.694V10.4307H56.894V12.2307ZM56.894 14.2155V16.0155H58.694V14.2155H56.894ZM51.5986 14.2155H49.7986V16.0155H51.5986V14.2155ZM51.5986 12.2307V10.4307H49.7986V12.2307H51.5986ZM50.5311 12.2307V22.8947H54.1311V12.2307H50.5311ZM52.3311 21.0947H49.7603V24.6947H52.3311V21.0947ZM51.5603 22.8947V12.2307H47.9603V22.8947H51.5603ZM49.7603 14.0307H52.3311V10.4307H49.7603V14.0307ZM54.6766 16.6691V18.6467H58.2766V16.6691H54.6766ZM56.4766 16.8467H51.5986V20.4467H56.4766V16.8467ZM53.3986 18.6467V16.6691H49.7986V18.6467H53.3986ZM51.5986 18.4691H56.4766V14.8691H51.5986V18.4691ZM55.094 12.2307V14.2155H58.694V12.2307H55.094ZM56.894 12.4155H51.5986V16.0155H56.894V12.4155ZM53.3986 14.2155V12.2307H49.7986V14.2155H53.3986ZM51.5986 14.0307H56.894V10.4307H51.5986V14.0307ZM66.2453 12.2307H68.0453V10.4307H66.2453V12.2307ZM66.2453 22.8947V24.6947H68.0453V22.8947H66.2453ZM63.6818 22.8947H61.8818V24.6947H63.6818V22.8947ZM63.6818 12.2307V10.4307H61.8818V12.2307H63.6818ZM64.4453 12.2307V22.8947H68.0453V12.2307H64.4453ZM66.2453 21.0947H63.6818V24.6947H66.2453V21.0947ZM65.4818 22.8947V12.2307H61.8818V22.8947H65.4818ZM63.6818 14.0307H66.2453V10.4307H63.6818V14.0307ZM77.64 20.3825L75.9032 19.9097L75.8739 20.0174L75.8581 20.1279L77.64 20.3825ZM79.8593 12.2307V10.4307H78.4838L78.1225 11.7578L79.8593 12.2307ZM82.7377 12.2307L84.4433 12.8058L85.2443 10.4307H82.7377V12.2307ZM79.1415 22.8947V24.6947H80.4341L80.8471 23.4699L79.1415 22.8947ZM77.2812 22.8947L75.4992 22.6402L75.2057 24.6947H77.2812V22.8947ZM75.6259 12.2307L77.3627 11.7578L77.0014 10.4307H75.6259V12.2307ZM77.8451 20.3825L79.6255 20.1178L79.6099 20.0124L79.5819 19.9097L77.8451 20.3825ZM78.2187 22.8947V24.6947H80.3061L79.9991 22.63L78.2187 22.8947ZM76.3363 22.8947L74.6296 23.4667L75.0412 24.6947H76.3363V22.8947ZM72.7621 12.2307V10.4307H70.2604L71.0554 12.8027L72.7621 12.2307ZM79.3768 20.8553L81.5961 12.7035L78.1225 11.7578L75.9032 19.9097L79.3768 20.8553ZM79.8593 14.0307H82.7377V10.4307H79.8593V14.0307ZM81.0321 11.6555L77.4359 22.3195L80.8471 23.4699L84.4433 12.8058L81.0321 11.6555ZM79.1415 21.0947H77.2812V24.6947H79.1415V21.0947ZM79.0631 23.1493L79.4219 20.6371L75.8581 20.1279L75.4992 22.6402L79.0631 23.1493ZM73.8891 12.7035L76.1083 20.8553L79.5819 19.9097L77.3627 11.7578L73.8891 12.7035ZM76.0647 20.6472L76.4382 23.1594L79.9991 22.63L79.6255 20.1178L76.0647 20.6472ZM78.2187 21.0947H76.3363V24.6947H78.2187V21.0947ZM78.043 22.3227L74.4688 11.6586L71.0554 12.8027L74.6296 23.4667L78.043 22.3227ZM72.7621 14.0307H75.6259V10.4307H72.7621V14.0307ZM96.4103 20.9172H98.2103V19.1172H96.4103V20.9172ZM96.4103 22.8947V24.6947H98.2103V22.8947H96.4103ZM90.7267 22.8947H88.9267V24.6947H90.7267V22.8947ZM90.7267 20.9172V19.1172H88.9267V20.9172H90.7267ZM91.6422 12.2307H93.4422V10.4307H91.6422V12.2307ZM91.6422 22.8947V24.6947H93.4422V22.8947H91.6422ZM89.0714 22.8947H87.2714V24.6947H89.0714V22.8947ZM89.0714 12.2307V10.4307H87.2714V12.2307H89.0714ZM95.6778 16.4641H97.4778V14.6641H95.6778V16.4641ZM95.6778 18.3757V20.1757H97.4778V18.3757H95.6778ZM90.7267 18.3757H88.9267V20.1757H90.7267V18.3757ZM90.7267 16.4641V14.6641H88.9267V16.4641H90.7267ZM96.4322 12.2307H98.2322V10.4307H96.4322V12.2307ZM96.4322 14.2155V16.0155H98.2322V14.2155H96.4322ZM90.7267 14.2155H88.9267V16.0155H90.7267V14.2155ZM90.7267 12.2307V10.4307H88.9267V12.2307H90.7267ZM94.6103 20.9172V22.8947H98.2103V20.9172H94.6103ZM96.4103 21.0947H90.7267V24.6947H96.4103V21.0947ZM92.5267 22.8947V20.9172H88.9267V22.8947H92.5267ZM90.7267 22.7172H96.4103V19.1172H90.7267V22.7172ZM89.8422 12.2307V22.8947H93.4422V12.2307H89.8422ZM91.6422 21.0947H89.0714V24.6947H91.6422V21.0947ZM90.8714 22.8947V12.2307H87.2714V22.8947H90.8714ZM89.0714 14.0307H91.6422V10.4307H89.0714V14.0307ZM93.8778 16.4641V18.3757H97.4778V16.4641H93.8778ZM95.6778 16.5757H90.7267V20.1757H95.6778V16.5757ZM92.5267 18.3757V16.4641H88.9267V18.3757H92.5267ZM90.7267 18.2641H95.6778V14.6641H90.7267V18.2641ZM94.6322 12.2307V14.2155H98.2322V12.2307H94.6322ZM96.4322 12.4155H90.7267V16.0155H96.4322V12.4155ZM92.5267 14.2155V12.2307H88.9267V14.2155H92.5267ZM90.7267 14.0307H96.4322V10.4307H90.7267V14.0307ZM117.72 19.6135L116.025 20.2189L116.029 20.2288L116.032 20.2386L117.72 19.6135ZM116.878 18.881L116.073 20.491L116.092 20.5006L116.111 20.5097L116.878 18.881ZM115.911 18.5002L115.342 20.2078L115.348 20.2099L115.911 18.5002ZM114.556 17.9728L113.803 19.6077L113.811 19.6112L113.818 19.6146L114.556 17.9728ZM113.392 17.277L112.28 18.6924L112.286 18.6974L112.292 18.7022L113.392 17.277ZM112.579 16.3395L111.004 17.2119L111.009 17.221L112.579 16.3395ZM112.586 13.842L114.156 14.7215L114.161 14.7126L112.586 13.842ZM113.443 12.8972L114.482 14.3672L114.485 14.3645L113.443 12.8972ZM114.747 12.2966L115.223 14.0324L115.231 14.0302L115.239 14.028L114.747 12.2966ZM118.445 12.4943L117.694 14.1302L117.702 14.1339L117.711 14.1375L118.445 12.4943ZM119.852 13.6442L118.361 14.6528L118.366 14.6612L118.372 14.6696L119.852 13.6442ZM120.364 15.3947V17.1947H122.164V15.3947H120.364ZM117.808 15.3947H116.008V17.1947H117.808V15.3947ZM117.64 14.6843L116.045 15.5195L116.053 15.5342L116.061 15.5488L117.64 14.6843ZM115.01 14.5671L116.487 15.5963L116.494 15.586L116.501 15.5756L115.01 14.5671ZM114.974 15.5412L113.476 16.5397L113.497 16.5719L113.52 16.6032L114.974 15.5412ZM115.362 15.9001L114.353 17.391L114.363 17.3977L114.373 17.4044L115.362 15.9001ZM115.977 16.2224L115.268 17.8769L115.28 17.8819L115.977 16.2224ZM116.797 16.5226L116.245 18.2357L116.25 18.2375L116.797 16.5226ZM118.306 17.1306L117.487 18.7333L117.498 18.7388L117.508 18.7441L118.306 17.1306ZM119.427 17.8849L118.197 19.1994L118.208 19.2097L118.219 19.2197L119.427 17.8849ZM120.123 18.8371L118.474 19.5598L118.478 19.5692L118.482 19.5786L120.123 18.8371ZM119.288 22.2648L120.351 23.717L120.358 23.7122L120.364 23.7073L119.288 22.2648ZM114.805 22.8361L114.338 24.5745L114.348 24.5771L114.357 24.5795L114.805 22.8361ZM113.37 22.1916L112.356 23.6788L112.367 23.6867L113.37 22.1916ZM112.337 21.071L110.762 21.9423L110.767 21.9523L110.773 21.9622L112.337 21.071ZM111.956 19.4377V17.6377H110.156V19.4377H111.956ZM114.534 19.4377H116.334V17.6377H114.534V19.4377ZM115.025 20.7487L113.885 22.1418L113.898 22.1523L113.911 22.1626L115.025 20.7487ZM115.618 21.027L115.182 22.7733L115.199 22.7776L115.216 22.7816L115.618 21.027ZM117.215 20.9684L117.972 22.6016L117.988 22.5941L118.004 22.5862L117.215 20.9684ZM117.654 20.5876L119.202 21.5066L119.208 21.4962L119.214 21.4857L117.654 20.5876ZM119.593 20.0602C119.593 19.7186 119.543 19.3528 119.408 18.9883L116.032 20.2386C115.995 20.1378 115.993 20.0699 115.993 20.0602H119.593ZM119.415 19.0081C119.245 18.5316 118.955 18.1624 118.645 17.8873L116.253 20.5779C116.208 20.5372 116.098 20.4219 116.025 20.2189L119.415 19.0081ZM118.645 17.8873C118.333 17.6102 117.972 17.4068 117.644 17.2524L116.111 20.5097C116.189 20.546 116.237 20.5733 116.264 20.5898C116.292 20.6072 116.284 20.6047 116.253 20.5779L118.645 17.8873ZM117.683 17.2711C117.331 17.0949 116.918 16.9366 116.474 16.7905L115.348 20.2099C115.705 20.3274 115.937 20.423 116.073 20.491L117.683 17.2711ZM116.48 16.7926C116.067 16.6547 115.672 16.5007 115.294 16.331L113.818 19.6146C114.31 19.8356 114.818 20.0332 115.342 20.2078L116.48 16.7926ZM115.309 16.338C114.985 16.1884 114.715 16.0245 114.491 15.8518L112.292 18.7022C112.752 19.057 113.259 19.3569 113.803 19.6077L115.309 16.338ZM114.504 15.8617C114.336 15.7299 114.225 15.5954 114.148 15.4581L111.009 17.221C111.332 17.7966 111.764 18.287 112.28 18.6924L114.504 15.8617ZM114.153 15.4672C114.123 15.4124 114.078 15.3018 114.078 15.0798H110.478C110.478 15.8147 110.634 16.544 111.004 17.2119L114.153 15.4672ZM114.078 15.0798C114.078 14.8992 114.116 14.7943 114.156 14.7215L111.015 12.9625C110.646 13.6221 110.478 14.3424 110.478 15.0798H114.078ZM114.161 14.7126C114.228 14.5929 114.324 14.4785 114.482 14.3672L112.404 11.4272C111.829 11.8334 111.354 12.3489 111.011 12.9713L114.161 14.7126ZM114.485 14.3645C114.664 14.2379 114.901 14.1208 115.223 14.0324L114.27 10.5608C113.596 10.7458 112.964 11.029 112.4 11.4298L114.485 14.3645ZM115.239 14.028C115.556 13.9378 115.933 13.8842 116.38 13.8842V10.2842C115.646 10.2842 114.933 10.3722 114.254 10.5652L115.239 14.028ZM116.38 13.8842C116.951 13.8842 117.375 13.9837 117.694 14.1302L119.196 10.8584C118.324 10.4581 117.371 10.2842 116.38 10.2842V13.8842ZM117.711 14.1375C118.035 14.2825 118.229 14.4585 118.361 14.6528L121.342 12.6357C120.8 11.8338 120.057 11.2433 119.18 10.8511L117.711 14.1375ZM118.372 14.6696C118.48 14.8252 118.564 15.0405 118.564 15.3947H122.164C122.164 14.4013 121.907 13.4496 121.331 12.6189L118.372 14.6696ZM120.364 13.5947H117.808V17.1947H120.364V13.5947ZM119.608 15.3947C119.608 14.8693 119.496 14.3269 119.218 13.8197L116.061 15.5488C116.037 15.5043 116.022 15.4629 116.015 15.431C116.007 15.4001 116.008 15.386 116.008 15.3947H119.608ZM119.234 13.8491C118.946 13.299 118.509 12.8865 117.996 12.6126L116.302 15.7891C116.272 15.7731 116.225 15.7426 116.173 15.6919C116.121 15.6404 116.077 15.5809 116.045 15.5195L119.234 13.8491ZM117.996 12.6126C117.443 12.3178 116.854 12.2251 116.321 12.2251V15.8251C116.383 15.8251 116.408 15.8307 116.403 15.8298C116.398 15.8286 116.359 15.8196 116.302 15.7891L117.996 12.6126ZM116.321 12.2251C115.828 12.2251 115.291 12.2983 114.777 12.5267L116.239 15.8164C116.2 15.8339 116.182 15.8356 116.196 15.8332C116.21 15.8306 116.25 15.8251 116.321 15.8251V12.2251ZM114.777 12.5267C114.312 12.7336 113.855 13.0622 113.519 13.5585L116.501 15.5756C116.39 15.7399 116.265 15.8048 116.239 15.8164L114.777 12.5267ZM113.534 13.5379C113.212 13.9991 113.042 14.5362 113.042 15.1017H116.642C116.642 15.1792 116.63 15.2688 116.601 15.3625C116.571 15.4561 116.53 15.5349 116.487 15.5963L113.534 13.5379ZM113.042 15.1017C113.042 15.6118 113.187 16.1069 113.476 16.5397L116.471 14.5427C116.523 14.6198 116.568 14.7116 116.599 14.8152C116.63 14.9186 116.642 15.0165 116.642 15.1017H113.042ZM113.52 16.6032C113.764 16.9366 114.06 17.1929 114.353 17.391L116.37 14.4092C116.353 14.3972 116.352 14.3948 116.362 14.4044C116.373 14.4142 116.397 14.4384 116.427 14.4792L113.52 16.6032ZM114.373 17.4044C114.653 17.5881 114.956 17.7432 115.268 17.8768L116.686 14.5679C116.519 14.4964 116.413 14.4367 116.35 14.3958L114.373 17.4044ZM115.28 17.8819C115.58 18.0078 115.903 18.1253 116.245 18.2357L117.35 14.8096C117.087 14.7247 116.863 14.642 116.674 14.5628L115.28 17.8819ZM116.25 18.2375C116.741 18.3941 117.151 18.5614 117.487 18.7333L119.125 15.5278C118.583 15.2505 117.986 15.0125 117.344 14.8078L116.25 18.2375ZM117.508 18.7441C117.825 18.9005 118.045 19.0573 118.197 19.1994L120.656 16.5705C120.203 16.1462 119.676 15.8 119.104 15.5171L117.508 18.7441ZM118.219 19.2197C118.351 19.3389 118.426 19.4513 118.474 19.5598L121.771 18.1144C121.506 17.51 121.118 16.9877 120.634 16.5502L118.219 19.2197ZM118.482 19.5786C118.524 19.6699 118.564 19.8143 118.564 20.0456H122.164C122.164 19.3785 122.044 18.7172 121.763 18.0956L118.482 19.5786ZM118.564 20.0456C118.564 20.2876 118.519 20.4296 118.476 20.515L121.696 22.125C122.024 21.4682 122.164 20.7606 122.164 20.0456H118.564ZM118.476 20.515C118.421 20.6241 118.342 20.7242 118.211 20.8224L120.364 23.7073C120.926 23.2879 121.379 22.7581 121.696 22.125L118.476 20.515ZM118.224 20.8127C118.082 20.9168 117.875 21.0235 117.569 21.1069L118.516 24.58C119.177 24.3997 119.8 24.1207 120.351 23.717L118.224 20.8127ZM117.569 21.1069C117.266 21.1896 116.889 21.2412 116.424 21.2412V24.8412C117.15 24.8412 117.853 24.761 118.516 24.58L117.569 21.1069ZM116.424 21.2412C116.029 21.2412 115.64 21.192 115.253 21.0927L114.357 24.5795C115.035 24.7536 115.725 24.8412 116.424 24.8412V21.2412ZM115.272 21.0977C114.925 21.0044 114.629 20.8687 114.372 20.6965L112.367 23.6867C112.97 24.0907 113.631 24.3846 114.338 24.5745L115.272 21.0977ZM114.384 20.7044C114.181 20.5665 114.025 20.3972 113.901 20.1797L110.773 21.9622C111.167 22.653 111.699 23.2308 112.356 23.6788L114.384 20.7044ZM113.912 20.1997C113.833 20.0562 113.756 19.8238 113.756 19.4377H110.156C110.156 20.3113 110.333 21.1678 110.762 21.9423L113.912 20.1997ZM111.956 21.2377H114.534V17.6377H111.956V21.2377ZM112.734 19.4377C112.734 19.8979 112.794 20.3962 112.98 20.8774L116.338 19.58C116.349 19.6087 116.347 19.6151 116.343 19.5899C116.339 19.5647 116.334 19.5156 116.334 19.4377H112.734ZM112.98 20.8774C113.163 21.3512 113.458 21.7923 113.885 22.1418L116.165 19.3556C116.213 19.3949 116.253 19.4392 116.284 19.4834C116.315 19.5269 116.331 19.5619 116.338 19.58L112.98 20.8774ZM113.911 22.1626C114.304 22.4724 114.744 22.6638 115.182 22.7733L116.055 19.2808C116.024 19.273 116.068 19.2789 116.139 19.3348L113.911 22.1626ZM115.216 22.7816C115.611 22.8721 116.019 22.9076 116.424 22.9076V19.3076C116.223 19.3076 116.094 19.2894 116.02 19.2725L115.216 22.7816ZM116.424 22.9076C116.897 22.9076 117.448 22.8442 117.972 22.6016L116.458 19.3353C116.493 19.3192 116.519 19.3101 116.536 19.3052C116.552 19.3004 116.559 19.2994 116.555 19.3C116.551 19.3007 116.539 19.3027 116.516 19.3044C116.494 19.3062 116.463 19.3076 116.424 19.3076V22.9076ZM118.004 22.5862C118.448 22.3696 118.893 22.0267 119.202 21.5066L116.107 19.6686C116.23 19.4609 116.382 19.372 116.426 19.3507L118.004 22.5862ZM119.214 21.4857C119.468 21.0446 119.593 20.5579 119.593 20.0602H115.993C115.993 20.0078 116 19.9446 116.018 19.8756C116.037 19.8064 116.063 19.7434 116.094 19.6894L119.214 21.4857ZM132.404 12.2307H134.204V10.4307H132.404V12.2307ZM132.404 22.8947V24.6947H134.204V22.8947H132.404ZM129.833 22.8947H128.033V24.6947H129.833V22.8947ZM129.833 12.2307V10.4307H128.033V12.2307H129.833ZM135.612 12.2307H137.412V10.4307H135.612V12.2307ZM135.612 14.2155V16.0155H137.412V14.2155H135.612ZM126.698 14.2155H124.898V16.0155H126.698V14.2155ZM126.698 12.2307V10.4307H124.898V12.2307H126.698ZM130.604 12.2307V22.8947H134.204V12.2307H130.604ZM132.404 21.0947H129.833V24.6947H132.404V21.0947ZM131.633 22.8947V12.2307H128.033V22.8947H131.633ZM129.833 14.0307H132.404V10.4307H129.833V14.0307ZM133.812 12.2307V14.2155H137.412V12.2307H133.812ZM135.612 12.4155H126.698V16.0155H135.612V12.4155ZM128.498 14.2155V12.2307H124.898V14.2155H128.498ZM126.698 14.0307H135.612V10.4307H126.698V14.0307ZM145.878 14.4719L147.598 15.0028L147.642 14.8623L147.662 14.7166L145.878 14.4719ZM143.278 22.8947V24.6947H144.606L144.998 23.4256L143.278 22.8947ZM140.517 22.8947L138.827 22.2739L137.938 24.6947H140.517V22.8947ZM144.435 12.2307V10.4307H143.179L142.746 11.6098L144.435 12.2307ZM146.186 12.2307L147.969 12.4754L148.25 10.4307H146.186V12.2307ZM148.032 22.8947L146.312 23.427L146.705 24.6947H148.032V22.8947ZM145.424 14.4719L143.644 14.7394L143.664 14.8741L143.705 15.0042L145.424 14.4719ZM145.087 12.2307V10.4307H142.996L143.307 12.4982L145.087 12.2307ZM146.86 12.2307L148.548 11.6068L148.114 10.4307H146.86V12.2307ZM150.8 22.8947V24.6947H153.384L152.489 22.2708L150.8 22.8947ZM147.929 18.9177H149.729V17.1177H147.929V18.9177ZM147.929 20.9025V22.7025H149.729V20.9025H147.929ZM142.458 20.9025H140.658V22.7025H142.458V20.9025ZM142.458 18.9177V17.1177H140.658V18.9177H142.458ZM144.158 13.9409L141.558 22.3638L144.998 23.4256L147.598 15.0028L144.158 13.9409ZM143.278 21.0947H140.517V24.6947H143.278V21.0947ZM142.207 23.5155L146.125 12.8515L142.746 11.6098L138.827 22.2739L142.207 23.5155ZM144.435 14.0307H146.186V10.4307H144.435V14.0307ZM144.403 11.9859L144.095 14.2271L147.662 14.7166L147.969 12.4754L144.403 11.9859ZM149.751 22.3624L147.144 13.9396L143.705 15.0042L146.312 23.427L149.751 22.3624ZM147.204 14.2043L146.867 11.9631L143.307 12.4982L143.644 14.7394L147.204 14.2043ZM145.087 14.0307H146.86V10.4307H145.087V14.0307ZM145.171 12.8545L149.112 23.5186L152.489 22.2708L148.548 11.6068L145.171 12.8545ZM150.8 21.0947H148.032V24.6947H150.8V21.0947ZM146.129 18.9177V20.9025H149.729V18.9177H146.129ZM147.929 19.1025H142.458V22.7025H147.929V19.1025ZM144.258 20.9025V18.9177H140.658V20.9025H144.258ZM142.458 20.7177H147.929V17.1177H142.458V20.7177ZM157.134 12.2307V10.4307H155.334V12.2307H157.134ZM163.469 12.5969L162.796 14.2663L163.469 12.5969ZM164.868 13.6808L163.382 14.6968L163.389 14.707L164.868 13.6808ZM164.282 18.0021L165.392 19.4196L165.394 19.4175L164.282 18.0021ZM163.103 18.654L162.463 16.9716L162.336 17.02L162.217 17.087L163.103 18.654ZM162.261 19.1301V20.9301H162.734L163.147 20.6971L162.261 19.1301ZM158.738 19.1301L156.938 19.1433L156.951 20.9301H158.738V19.1301ZM158.723 17.1452V15.3452H156.91L156.923 17.1585L158.723 17.1452ZM162.627 16.4714L161.024 15.6522L161.021 15.6593L161.017 15.6664L162.627 16.4714ZM162.129 14.3913L161.267 15.9715L161.274 15.9756L161.282 15.9795L162.129 14.3913ZM159.705 14.2155V12.4155H157.905V14.2155H159.705ZM159.705 22.8947V24.6947H161.505V22.8947H159.705ZM157.134 22.8947H155.334V24.6947H157.134V22.8947ZM162.971 22.8947L161.361 23.6997L161.859 24.6947H162.971V22.8947ZM160.613 18.1779L160.603 16.3779L157.708 16.3935L159.003 18.9829L160.613 18.1779ZM163.338 18.1633L164.937 17.3371L164.431 16.3574L163.328 16.3633L163.338 18.1633ZM165.725 22.7849H167.525V22.3473L167.324 21.9586L165.725 22.7849ZM165.725 22.8947V24.6947H167.525V22.8947H165.725ZM157.134 14.0307H161.331V10.4307H157.134V14.0307ZM161.331 14.0307C161.977 14.0307 162.452 14.1274 162.796 14.2663L164.142 10.9275C163.276 10.578 162.325 10.4307 161.331 10.4307V14.0307ZM162.796 14.2663C163.115 14.3949 163.28 14.5476 163.382 14.6967L166.354 12.665C165.802 11.8571 165.034 11.2871 164.142 10.9275L162.796 14.2663ZM163.389 14.707C163.472 14.8263 163.566 15.0396 163.566 15.4533H167.166C167.166 14.4607 166.928 13.4924 166.347 12.6547L163.389 14.707ZM163.566 15.4533C163.566 15.8886 163.497 16.1212 163.448 16.2261L166.713 17.7421C167.045 17.0266 167.166 16.2388 167.166 15.4533H163.566ZM163.448 16.2261C163.372 16.3899 163.28 16.5004 163.17 16.5868L165.394 19.4175C165.968 18.9667 166.408 18.3986 166.713 17.7421L163.448 16.2261ZM163.173 16.5846C162.995 16.7242 162.764 16.8571 162.463 16.9716L163.743 20.3364C164.341 20.109 164.896 19.8074 165.392 19.4196L163.173 16.5846ZM162.217 17.087L161.375 17.5631L163.147 20.6971L163.989 20.221L162.217 17.087ZM162.261 17.3301H158.738V20.9301H162.261V17.3301ZM160.538 19.1168L160.523 17.1319L156.923 17.1585L156.938 19.1433L160.538 19.1168ZM158.723 18.9452H161.331V15.3452H158.723V18.9452ZM161.331 18.9452C161.861 18.9452 162.452 18.8515 163.006 18.5496L161.282 15.3892C161.344 15.3553 161.388 15.3442 161.399 15.3419C161.408 15.3399 161.389 15.3452 161.331 15.3452V18.9452ZM163.006 18.5496C163.537 18.26 163.962 17.8265 164.237 17.2764L161.017 15.6664C161.043 15.6152 161.081 15.5577 161.134 15.5034C161.187 15.4492 161.24 15.4122 161.282 15.3892L163.006 18.5496ZM164.23 17.2906C164.498 16.7661 164.596 16.2116 164.596 15.6877H160.996C160.996 15.7284 160.992 15.7412 160.994 15.7324C160.996 15.7224 161.003 15.6928 161.024 15.6522L164.23 17.2906ZM164.596 15.6877C164.596 15.164 164.5 14.6057 164.23 14.0775L161.024 15.7159C161.002 15.6729 160.995 15.6425 160.993 15.6341C160.991 15.6269 160.996 15.6426 160.996 15.6877H164.596ZM164.23 14.0775C163.948 13.527 163.517 13.0917 162.976 12.8031L161.282 15.9795C161.24 15.957 161.188 15.9211 161.136 15.869C161.085 15.8168 161.048 15.7625 161.024 15.7159L164.23 14.0775ZM162.991 12.8111C162.445 12.5131 161.862 12.4155 161.331 12.4155V16.0155C161.38 16.0155 161.394 16.0202 161.381 16.0174C161.367 16.0142 161.325 16.0029 161.267 15.9715L162.991 12.8111ZM161.331 12.4155H159.705V16.0155H161.331V12.4155ZM157.905 14.2155V22.8947H161.505V14.2155H157.905ZM159.705 21.0947H157.134V24.6947H159.705V21.0947ZM158.934 22.8947V12.2307H155.334V22.8947H158.934ZM164.581 22.0897L162.223 17.3729L159.003 18.9829L161.361 23.6997L164.581 22.0897ZM160.623 19.9779L163.347 19.9632L163.328 16.3633L160.603 16.3779L160.623 19.9779ZM161.738 18.9895L164.126 23.6111L167.324 21.9586L164.937 17.3371L161.738 18.9895ZM163.925 22.7849V22.8947H167.525V22.7849H163.925ZM165.725 21.0947H162.971V24.6947H165.725V21.0947Z" fill="#0066FF"/>
<g filter="url(#filter1_i_130_2951)">
<path d="M54.2393 37.6816V39H50.6455V37.6816H54.2393ZM51.2559 31.8906V39H49.542V31.8906H51.2559ZM61.2545 37.6816V39H57.4654V37.6816H61.2545ZM58.0758 31.8906V39H56.3619V31.8906H58.0758ZM60.7662 34.7129V35.9873H57.4654V34.7129H60.7662ZM61.2691 31.8906V33.2139H57.4654V31.8906H61.2691ZM66.3703 33.3848L64.6369 39H62.7961L65.4084 31.8906H66.5754L66.3703 33.3848ZM67.8059 39L66.0676 33.3848L65.843 31.8906H67.0246L69.6516 39H67.8059ZM67.7375 36.3486V37.6719H64.09V36.3486H67.7375ZM71.574 31.8906H74.3719C74.9188 31.8906 75.394 31.972 75.7977 32.1348C76.2013 32.2975 76.5122 32.5384 76.7303 32.8574C76.9516 33.1764 77.0623 33.5703 77.0623 34.0391C77.0623 34.446 76.9988 34.7861 76.8719 35.0596C76.7449 35.333 76.5675 35.5592 76.3396 35.7383C76.115 35.9141 75.853 36.0589 75.5535 36.1729L74.992 36.4902H72.6434L72.6336 35.167H74.3719C74.59 35.167 74.7706 35.1279 74.9139 35.0498C75.0571 34.9717 75.1645 34.861 75.2361 34.7178C75.311 34.5713 75.3484 34.3971 75.3484 34.1953C75.3484 33.9902 75.311 33.8145 75.2361 33.668C75.1613 33.5215 75.0506 33.4092 74.9041 33.3311C74.7609 33.2529 74.5835 33.2139 74.3719 33.2139H73.2879V39H71.574V31.8906ZM75.4656 39L73.8934 35.8555L75.7098 35.8457L77.3016 38.9268V39H75.4656ZM85.435 31.8906V39H83.726L81.2113 34.5762V39H79.4975V31.8906H81.2113L83.726 36.3145V31.8906H85.435ZM89.7402 31.8906V39H88.0312V31.8906H89.7402ZM98.2838 31.8906V39H96.5748L94.0602 34.5762V39H92.3463V31.8906H94.0602L96.5748 36.3145V31.8906H98.2838ZM106.583 35.2012V38.1211C106.463 38.2546 106.277 38.3978 106.027 38.5508C105.779 38.7005 105.467 38.8291 105.089 38.9365C104.711 39.0439 104.267 39.0977 103.756 39.0977C103.284 39.0977 102.856 39.0228 102.472 38.873C102.088 38.7201 101.757 38.4971 101.481 38.2041C101.207 37.9079 100.996 37.5465 100.846 37.1201C100.699 36.6904 100.626 36.1989 100.626 35.6455V35.25C100.626 34.6966 100.701 34.2051 100.851 33.7754C101.001 33.3457 101.21 32.9844 101.481 32.6914C101.754 32.3952 102.075 32.1706 102.443 32.0176C102.814 31.8646 103.221 31.7881 103.663 31.7881C104.318 31.7881 104.85 31.8923 105.26 32.1006C105.67 32.3057 105.981 32.5905 106.193 32.9551C106.404 33.3164 106.533 33.7347 106.578 34.21H104.933C104.9 33.9756 104.838 33.777 104.747 33.6143C104.659 33.4482 104.532 33.3229 104.366 33.2383C104.2 33.1504 103.986 33.1064 103.722 33.1064C103.517 33.1064 103.33 33.1504 103.16 33.2383C102.994 33.3262 102.853 33.4596 102.736 33.6387C102.618 33.8145 102.527 34.0358 102.462 34.3027C102.4 34.5697 102.369 34.8822 102.369 35.2402V35.6455C102.369 36.0003 102.399 36.3112 102.457 36.5781C102.519 36.8451 102.61 37.068 102.731 37.2471C102.854 37.4229 103.011 37.5563 103.199 37.6475C103.391 37.7354 103.618 37.7793 103.878 37.7793C104.06 37.7793 104.217 37.7646 104.347 37.7354C104.477 37.7028 104.585 37.6637 104.669 37.6182C104.757 37.5693 104.824 37.5238 104.869 37.4814V36.3779H103.678V35.2012H106.583ZM115.887 33.3848L114.154 39H112.313L114.925 31.8906H116.092L115.887 33.3848ZM117.323 39L115.584 33.3848L115.36 31.8906H116.541L119.168 39H117.323ZM117.254 36.3486V37.6719H113.607V36.3486H117.254ZM125.026 36.5928H126.735C126.713 37.0876 126.579 37.5238 126.335 37.9014C126.091 38.279 125.752 38.5736 125.319 38.7852C124.89 38.9935 124.382 39.0977 123.796 39.0977C123.321 39.0977 122.896 39.0179 122.521 38.8584C122.15 38.6989 121.835 38.4694 121.574 38.1699C121.317 37.8704 121.12 37.5075 120.983 37.0811C120.85 36.6546 120.783 36.1745 120.783 35.6406V35.2549C120.783 34.721 120.853 34.2409 120.993 33.8145C121.136 33.3848 121.338 33.0202 121.599 32.7207C121.862 32.418 122.178 32.1868 122.546 32.0273C122.914 31.8678 123.322 31.7881 123.771 31.7881C124.39 31.7881 124.912 31.8988 125.339 32.1201C125.765 32.3415 126.096 32.6458 126.33 33.0332C126.564 33.4173 126.703 33.8551 126.745 34.3467H125.036C125.03 34.0798 124.984 33.8568 124.899 33.6777C124.815 33.4954 124.681 33.3587 124.499 33.2676C124.317 33.1764 124.074 33.1309 123.771 33.1309C123.56 33.1309 123.376 33.1699 123.22 33.248C123.063 33.3262 122.933 33.4499 122.829 33.6191C122.725 33.7884 122.647 34.0081 122.595 34.2783C122.546 34.5452 122.521 34.8675 122.521 35.2451V35.6406C122.521 36.0182 122.544 36.3405 122.59 36.6074C122.635 36.8743 122.709 37.0924 122.81 37.2617C122.91 37.431 123.041 37.5563 123.2 37.6377C123.363 37.7158 123.562 37.7549 123.796 37.7549C124.056 37.7549 124.276 37.7142 124.455 37.6328C124.634 37.5482 124.772 37.4212 124.87 37.252C124.968 37.0794 125.02 36.8597 125.026 36.5928ZM131.959 33.3848L130.225 39H128.384L130.997 31.8906H132.164L131.959 33.3848ZM133.394 39L131.656 33.3848L131.431 31.8906H132.613L135.24 39H133.394ZM133.326 36.3486V37.6719H129.678V36.3486H133.326ZM139.472 39H137.895L137.904 37.6816H139.472C139.797 37.6816 140.072 37.6035 140.297 37.4473C140.525 37.291 140.697 37.0583 140.815 36.749C140.935 36.4365 140.995 36.0524 140.995 35.5967V35.2891C140.995 34.9473 140.961 34.6478 140.893 34.3906C140.828 34.1302 140.73 33.9137 140.6 33.7412C140.47 33.5654 140.307 33.4336 140.112 33.3457C139.919 33.2578 139.698 33.2139 139.447 33.2139H137.865V31.8906H139.447C139.929 31.8906 140.37 31.9736 140.771 32.1396C141.174 32.3024 141.523 32.5368 141.816 32.8428C142.112 33.1455 142.34 33.5052 142.499 33.9219C142.662 34.3353 142.743 34.7943 142.743 35.2988V35.5967C142.743 36.098 142.662 36.557 142.499 36.9736C142.34 37.3903 142.113 37.75 141.821 38.0527C141.528 38.3555 141.181 38.5898 140.78 38.7559C140.383 38.9186 139.947 39 139.472 39ZM138.876 31.8906V39H137.162V31.8906H138.876ZM149.929 37.6816V39H146.14V37.6816H149.929ZM146.751 31.8906V39H145.037V31.8906H146.751ZM149.441 34.7129V35.9873H146.14V34.7129H149.441ZM149.944 31.8906V33.2139H146.14V31.8906H149.944ZM152.882 31.8906H154.279L155.866 36.8369L157.453 31.8906H158.849L156.432 39H155.299L152.882 31.8906ZM152.033 31.8906H153.478L153.746 37.3398V39H152.033V31.8906ZM158.253 31.8906H159.704V39H157.985V37.3398L158.253 31.8906ZM163.354 31.8906L164.663 34.9766L165.977 31.8906H167.822L165.537 36.4463V39H163.794V36.4463L161.504 31.8906H163.354Z" fill="#0066FF"/>
</g>
<defs>
<filter id="filter0_d_130_2951" x="11.6956" y="0" width="35.0298" height="33.3262" filterUnits="userSpaceOnUse" color-interpolation-filters="sRGB">
<feFlood flood-opacity="0" result="BackgroundImageFix"/>
<feColorMatrix in="SourceAlpha" type="matrix" values="0 0 0 0 0 0 0 0 0 0 0 0 0 0 0 0 0 0 127 0" result="hardAlpha"/>
<feOffset dy="4"/>
<feGaussianBlur stdDeviation="2"/>
<feComposite in2="hardAlpha" operator="out"/>
<feColorMatrix type="matrix" values="0 0 0 0 0.768627 0 0 0 0 0.768627 0 0 0 0 0.768627 0 0 0 0.12 0"/>
<feBlend mode="normal" in2="BackgroundImageFix" result="effect1_dropShadow_130_2951"/>
<feBlend mode="normal" in="SourceGraphic" in2="effect1_dropShadow_130_2951" result="shape"/>
</filter>
<filter id="filter1_i_130_2951" x="49.542" y="31.7881" width="218.28" height="107.31" filterUnits="userSpaceOnUse" color-interpolation-filters="sRGB">
<feFlood flood-opacity="0" result="BackgroundImageFix"/>
<feBlend mode="normal" in="SourceGraphic" in2="BackgroundImageFix" result="shape"/>
<feColorMatrix in="SourceAlpha" type="matrix" values="0 0 0 0 0 0 0 0 0 0 0 0 0 0 0 0 0 0 127 0" result="hardAlpha"/>
<feOffset dx="100" dy="100"/>
<feGaussianBlur stdDeviation="50"/>
<feComposite in2="hardAlpha" operator="arithmetic" k2="-1" k3="1"/>
<feColorMatrix type="matrix" values="0 0 0 0 1 0 0 0 0 1 0 0 0 0 1 0 0 0 0.25 0"/>
<feBlend mode="normal" in2="shape" result="effect1_innerShadow_130_2951"/>
</filter>
</defs>
</svg>
